<?xml version="1.0" encoding="UTF-8" standalone="no"?>
<svg
   xmlns:dc="http://purl.org/dc/elements/1.1/"
   xmlns:cc="http://creativecommons.org/ns#"
   xmlns:rdf="http://www.w3.org/1999/02/22-rdf-syntax-ns#"
   xmlns:svg="http://www.w3.org/2000/svg"
   xmlns="http://www.w3.org/2000/svg"
   viewBox="0 0 642.61746 148.9075"
   height="148.9075"
   width="642.61749"
   xml:space="preserve"
   version="1.1"
   id="svg3355"><metadata
     id="metadata3361"><rdf:RDF><cc:Work
         rdf:about=""><dc:format>image/svg+xml</dc:format><dc:type
           rdf:resource="http://purl.org/dc/dcmitype/StillImage" /><dc:title></dc:title></cc:Work></rdf:RDF></metadata><defs
     id="defs3359"><clipPath
       id="clipPath3369"
       clipPathUnits="userSpaceOnUse"><path
         id="path3371"
         d="m 164.714,256.74 514.094,0 0,119.126 -514.094,0 0,-119.126 z" /></clipPath></defs><g
     transform="matrix(1.25,0,0,-1.25,-205.8925,469.8325)"
     id="g3363"><g
       id="g3365"><g
         clip-path="url(#clipPath3369)"
         id="g3367"><g
           transform="translate(511.2256,268.1953)"
           id="g3373"><path
             id="path3375"
             style="fill:#ffffff;fill-opacity:1;fill-rule:evenodd;stroke:none"
             d="m 0,0 c 1.036,-0.581 2.093,-0.872 3.384,-0.872 4.56,0 7.426,2.95 7.426,7.6 0,4.212 -2.448,7.036 -5.937,7.036 -1.035,0 -2.241,-0.291 -3.632,-0.83 l 2.1,3.777 c 0.787,0.124 1.532,0.209 2.241,0.209 5.647,0 9.342,-3.901 9.342,-9.823 0,-6.593 -4.611,-10.998 -12.249,-10.998 -1.689,0 -3.873,0.241 -6.555,0.73 l 0,28.922 3.88,0 L 0,0 Z" /></g><g
           transform="translate(545.2568,280.5938)"
           id="g3377"><path
             id="path3379"
             style="fill:#ffffff;fill-opacity:1;fill-rule:evenodd;stroke:none"
             d="m 0,0 0,4.358 c -2.404,0.33 -4.106,0.496 -5.106,0.496 -6.434,0 -11.306,-4.73 -11.306,-10.769 0,-5.895 4.83,-10.335 11.766,-10.335 1.909,0 3.526,0.454 5.065,1.404 l 1.333,3.341 c -2,-0.922 -3.83,-1.468 -5.695,-1.468 -4.483,0 -7.93,3.277 -7.93,7.867 0,4.148 2.575,6.975 6.56,6.975 1.54,0 3.32,-0.624 5.313,-1.869" /></g><g
           transform="translate(555.1016,256.5137)"
           id="g3381"><path
             id="path3383"
             style="fill:#ffffff;fill-opacity:1;fill-rule:evenodd;stroke:none"
             d="m 0,0 -3.879,0 0,28.41 3.787,0 0.007,-2.88 c 2.036,2.199 4.447,3.324 7.228,3.324 5.419,0 9.689,-4.32 9.689,-10.005 0,-3.72 -1.532,-6.87 -4.199,-8.863 C 10.81,8.61 8.846,7.993 6.597,7.993 5.604,7.993 4.568,8.114 3.49,8.362 l -2.454,3.575 c 1.667,-0.751 3.071,-1.121 4.355,-1.121 4.405,0 7.079,2.696 7.079,7.388 0,4.546 -2.837,7.617 -6.575,7.617 -1.618,0 -3.114,-0.582 -4.278,-1.66 C 0.078,22.75 0,20.757 0,17.998 L 0,16.753 0,0 Z" /></g><g
           transform="translate(309.8042,355.4546)"
           id="g3385"><path
             id="path3387"
             style="fill:#ffffff;fill-opacity:1;fill-rule:evenodd;stroke:none"
             d="m 0,0 c 0,2.869 -2.185,5.389 -5.036,5.389 -2.766,0 -5.433,-2.084 -5.433,-5.127 0,-3.213 2.327,-5.741 5.433,-5.741 C -2.185,-5.479 0,-2.869 0,0" /></g><g
           transform="translate(301.2148,344.7837)"
           id="g3389"><path
             id="path3391"
             style="fill:#ffffff;fill-opacity:1;fill-rule:evenodd;stroke:none"
             d="m 0,0 c 0,0 0.028,-5.564 0.028,-9.565 l 0,-20.757 c 0,-3.979 -0.056,-9.629 -0.056,-9.629 l 7.681,0 c 0,0 0.014,5.65 0.014,9.629 l 0,30.315 C 7.667,-0.007 3.887,0 1.965,0 L 0,0 Z" /></g><g
           transform="translate(321.2095,362.019)"
           id="g3393"><path
             id="path3395"
             style="fill:#ffffff;fill-opacity:1;fill-rule:evenodd;stroke:none"
             d="m 0,0 c 0,0 0.064,-5.657 0.064,-9.661 l 0,-37.903 c 0,-3.983 0.014,-9.64 0.014,-9.64 l 8.015,0 c 0,0 -0.114,5.657 -0.114,9.64 l 0,47.582 C 7.979,0.018 4.157,0 2.149,0 L 0,0 Z" /></g><g
           transform="translate(340.9419,362.0972)"
           id="g3397"><path
             id="path3399"
             style="fill:#ffffff;fill-opacity:1;fill-rule:evenodd;stroke:none"
             d="m 0,0 c 0,0 0.064,-5.657 0.064,-9.661 l 0,-37.903 c 0,-3.983 0.014,-9.64 0.014,-9.64 l 8.007,0 c 0,0 -0.106,5.657 -0.106,9.64 l 0,47.582 C 7.979,0.018 4.149,0 2.142,0 L 0,0 Z" /></g><g
           transform="translate(254.9912,319.6289)"
           id="g3401"><path
             id="path3403"
             style="fill:#ffffff;fill-opacity:1;fill-rule:evenodd;stroke:none"
             d="m 0,0 -16.235,38.092 c -5.058,11.701 -12.158,16.491 -17.81,17.842 -2.525,0.876 -9.817,0.284 -9.817,0.284 0,0 5.49,-0.284 8.511,-2.575 4.242,-2.768 6.873,-9.239 5.696,-17.98 l -5.15,-38.085 c -0.695,-4.671 -2.07,-12.345 -2.07,-12.345 l 7.404,0 c 0,0 0.461,5.876 1.157,11.132 l 4.9,37.145 L -7,-5.447 c 2.078,-4.824 3.283,-7.157 7.61,-10.445 l 19.349,49.487 4.93,-41.638 c 0.283,-2.922 0.496,-6.724 0.496,-6.724 l 9.575,0 c 0,0 -0.844,5.014 -1.355,9.057 l -5.709,42.419 c -0.177,1.989 -0.404,5.364 -0.404,5.364 l -11.852,0 0,-0.087 c 0,-1.821 -0.611,-3.547 -1.306,-5.362 L 0,0 Z" /></g><g
           transform="translate(367.5537,331.605)"
           id="g3405"><path
             id="path3407"
             style="fill:#ffffff;fill-opacity:1;fill-rule:evenodd;stroke:none"
             d="M 0,0 C 1.05,5.483 5.376,8.965 11.207,8.965 17.47,8.965 21.456,6.093 22.414,0 L 0,0 Z m 31.556,-5.025 c 0.348,11.207 -7.752,19.714 -19.569,19.714 -12.944,0 -21.732,-8.77 -21.732,-20.846 0,-12.096 10.185,-21.388 24.952,-21.388 4.1,0 8.249,0.61 11.994,2.174 l 4.355,8.161 -0.269,0 c -4.001,-3.132 -9.044,-4.59 -14.243,-4.59 -9.837,0 -17.214,6.157 -17.384,16.775 l 31.896,0 z" /></g><g
           transform="translate(507.3457,355.4087)"
           id="g3409"><path
             id="path3411"
             style="fill:#ffffff;fill-opacity:1;fill-rule:evenodd;stroke:none"
             d="m 0,0 c 0,2.869 -2.177,5.389 -5.028,5.389 -2.767,0 -5.454,-2.084 -5.454,-5.127 0,-3.213 2.339,-5.738 5.454,-5.738 C -2.177,-5.476 0,-2.869 0,0" /></g><g
           transform="translate(498.7637,344.7339)"
           id="g3413"><path
             id="path3415"
             style="fill:#ffffff;fill-opacity:1;fill-rule:evenodd;stroke:none"
             d="m 0,0 c 0,0 0.028,-5.561 0.028,-9.561 l 0,-20.754 c 0,-3.982 -0.056,-9.635 -0.056,-9.635 l 7.674,0 c 0,0 0.014,5.653 0.014,9.635 L 7.66,0 1.958,0 0,0 Z" /></g><g
           transform="translate(406.3872,344.8086)"
           id="g3417"><path
             id="path3419"
             style="fill:#ffffff;fill-opacity:1;fill-rule:evenodd;stroke:none"
             d="m 0,0 c 0,0 0.085,-5.657 0.085,-9.661 l 0,-20.693 c 0,-3.982 0.007,-9.639 0.007,-9.639 l 7.98,0 c 0,0 -0.072,5.571 -0.072,9.551 l 0,15.387 c 0,5.132 1.306,10.441 9.236,10.441 7.893,0 10.504,-4.788 10.504,-14.079 l 0,-11.749 c 0,-3.894 -0.007,-9.551 -0.007,-9.551 l 7.965,0 c 0,0 -0.057,5.571 -0.057,9.551 l 0,12.621 c 0,4.071 0.256,9.466 -2.156,12.945 C 30.698,-0.784 25.129,1.135 20.257,1.135 14.618,1.135 11.05,-1.394 8,-5.572 L 8,0.035 C 8,0.035 3.83,0 1.908,0 L 0,0 Z" /></g><g
           transform="translate(544.5625,344.9287)"
           id="g3421"><path
             id="path3423"
             style="fill:#ffffff;fill-opacity:1;fill-rule:evenodd;stroke:none"
             d="m 0,0 c 0,0 0.014,-5.656 0.014,-9.749 l 0,-13.38 c 0,-6.703 -4.17,-11.381 -9.923,-11.381 -7.547,0 -9.81,4.94 -9.81,12.945 l 0,21.558 c 0,0 -3.659,0.007 -5.574,0.007 l -2.426,0 c 0,0 0.078,-5.656 0.078,-9.66 l 0,-13.384 c 0,-12.246 4.879,-18.08 15.121,-18.08 6.093,0 9.406,2 12.534,6.788 l 0,-5.657 7.908,0 c 0,0 -0.007,5.483 -0.007,9.466 l 0,30.513 C 7.915,-0.014 3.411,0 1.148,0 L 0,0 Z" /></g><g
           transform="translate(451.5332,344.8477)"
           id="g3425"><path
             id="path3427"
             style="fill:#ffffff;fill-opacity:1;fill-rule:evenodd;stroke:none"
             d="m 0,0 c 0,0 0.078,-5.657 0.078,-9.661 l 0,-20.69 c 0,-3.982 0.007,-9.642 0.007,-9.642 l 7.958,0 c 0,0 -0.071,5.571 -0.071,9.554 l 0,15.38 c 0,5.14 1.312,10.449 9.227,10.449 7.923,0 10.512,-4.788 10.512,-14.08 l 0,-11.749 c 0,-3.894 -0.007,-9.554 -0.007,-9.554 l 7.986,0 c 0,0 -0.056,5.571 -0.056,9.554 l 0,12.622 c 0,4.067 0.256,9.462 -2.178,12.944 -2.787,4.093 -8.334,6.008 -13.206,6.008 -5.66,0 -9.229,-2.526 -12.278,-6.703 l 0,5.607 C 7.972,0.039 3.822,0 1.9,0 L 0,0 Z" /></g><g
           transform="translate(563.6348,344.8223)"
           id="g3429"><path
             id="path3431"
             style="fill:#ffffff;fill-opacity:1;fill-rule:evenodd;stroke:none"
             d="m 0,0 c 0,0 0.092,-5.571 0.092,-9.571 l 0,-20.783 c 0,-3.982 -0.035,-9.639 -0.035,-9.639 l 7.929,0 0,9.639 0,13.317 c 0,8.338 3.221,12.423 9.838,12.423 5.376,0 9.902,-4.61 9.902,-13.728 l 0,-12.012 c 0,-3.982 0.006,-9.639 0.006,-9.639 l 7.91,0 c 0,0 0.006,5.657 0.006,9.639 l 0,12.622 c 0,8.161 2.15,13.118 9.987,13.118 6.958,0 9.724,-5.656 9.724,-14.511 l 0,-11.229 c 0,-3.982 -0.071,-9.639 -0.071,-9.639 l 8.015,0 c 0,0 -0.029,5.909 -0.029,9.639 l 0,13.402 c 0,11.033 -3.212,18.087 -15.553,18.087 -6.441,0 -10.512,-2.872 -13.903,-7.575 -3.219,5.135 -7.397,7.575 -13.583,7.575 -5.801,0 -9.199,-2.181 -12.249,-6.88 l 0,5.727 C 7.986,-0.018 4.241,0 2.333,0 L 0,0 Z" /></g><path
           id="path3433"
           style="fill:#ffffff;fill-opacity:1;fill-rule:nonzero;stroke:none"
           d="m 678.998,293.801 -514.414,0 0,2.5 514.414,0 0,-2.5 z" /></g></g></g></svg>