<?xml version="1.0" encoding="UTF-8" standalone="no"?>
<svg
   xmlns:dc="http://purl.org/dc/elements/1.1/"
   xmlns:cc="http://creativecommons.org/ns#"
   xmlns:rdf="http://www.w3.org/1999/02/22-rdf-syntax-ns#"
   xmlns:svg="http://www.w3.org/2000/svg"
   xmlns="http://www.w3.org/2000/svg"
   xml:space="preserve"
   viewBox="0 0 125.00099 114.64235"
   height="114.64236"
   width="125.001"
   y="0px"
   x="0px"
   id="Layer_1"
   version="1.1"><metadata
     id="metadata9"><rdf:RDF><cc:Work
         rdf:about=""><dc:format>image/svg+xml</dc:format><dc:type
           rdf:resource="http://purl.org/dc/dcmitype/StillImage" /><dc:title></dc:title></cc:Work></rdf:RDF></metadata><defs
     id="defs7" /><path
     style="fill:#ffffff"
     id="path3"
     d="m 69.573,89.443358 -25.747,-60.396 C 35.81,10.489358 24.534,2.8973577 15.58,0.75535767 c -3.995,-1.381 -15.58,-0.446 -15.58,-0.446 0,0 8.729,0.446 13.522,4.07800003 6.707,4.382 10.875,14.6310003 9.014,28.5110003 l -8.154,60.379 C 13.286,100.67236 11.11,112.86436 11.11,112.86436 l 11.714,0 c 0,0 0.732,-9.315 1.828,-17.670002 l 7.807,-58.889 26.021,61.766 c 3.286,7.669002 5.205,11.367002 12.054,16.571002 l 30.677,-78.474002 7.807,66.011002 c 0.448,4.663 0.79,10.685 0.79,10.685 l 15.193,0 c 0,0 -1.33,-7.946 -2.155,-14.380002 l -9.033,-67.247 c -0.278,-3.149 -0.644,-8.489 -0.644,-8.489 l -18.805,0 0,0.137 c 0,2.875 -0.961,5.614 -2.056,8.491 l -22.735,58.067 0,0 z" /></svg>