<?xml version="1.0" encoding="utf-8"?>
<!-- Generator: Adobe Illustrator 15.0.2, SVG Export Plug-In . SVG Version: 6.00 Build 0)  -->
<!DOCTYPE svg PUBLIC "-//W3C//DTD SVG 1.1 Basic//EN" "http://www.w3.org/Graphics/SVG/1.1/DTD/svg11-basic.dtd">
<svg version="1.1" baseProfile="basic" id="Layer_1"
	 xmlns="http://www.w3.org/2000/svg" xmlns:xlink="http://www.w3.org/1999/xlink" x="0px" y="0px" width="595.275px"
	 height="841.89px" viewBox="0 0 595.275 841.89" xml:space="preserve">
<path fill="#FFFFFF" d="M352.393,497.998l-25.747-60.396c-8.016-18.558-19.292-26.15-28.246-28.292
	c-3.995-1.381-15.58-0.446-15.58-0.446s8.729,0.446,13.522,4.078c6.707,4.382,10.875,14.631,9.014,28.511l-8.154,60.379
	c-1.096,7.395-3.272,19.587-3.272,19.587h11.714c0,0,0.732-9.315,1.828-17.67l7.807-58.889l26.021,61.766
	c3.286,7.669,5.205,11.367,12.054,16.571l30.677-78.474l7.807,66.011c0.448,4.663,0.79,10.685,0.79,10.685h15.193
	c0,0-1.33-7.946-2.155-14.38l-9.033-67.247c-0.278-3.149-0.644-8.489-0.644-8.489h-18.805v0.137c0,2.875-0.961,5.614-2.056,8.491
	L352.393,497.998L352.393,497.998z"/>
</svg>
