<?xml version="1.0" encoding="utf-8"?>
<!-- Generator: Adobe Illustrator 15.0.0, SVG Export Plug-In . SVG Version: 6.00 Build 0)  -->
<!DOCTYPE svg PUBLIC "-//W3C//DTD SVG 1.1//EN" "http://www.w3.org/Graphics/SVG/1.1/DTD/svg11.dtd">
<svg version="1.1" id="Layer_1" xmlns="http://www.w3.org/2000/svg" xmlns:xlink="http://www.w3.org/1999/xlink" x="0px" y="0px"
	 width="841.89px" height="595.28px" viewBox="0 0 841.89 595.28" enable-background="new 0 0 841.89 595.28" xml:space="preserve">
<g>
	<rect x="164.714" y="219.411" fill="none" width="514.094" height="119.129"/>
	<g>
		<defs>
			<rect id="SVGID_1_" x="164.714" y="219.414" width="514.094" height="119.126"/>
		</defs>
		<clipPath id="SVGID_2_">
			<use xlink:href="#SVGID_1_"  overflow="visible"/>
		</clipPath>
		<g clip-path="url(#SVGID_2_)">
			<path fill-rule="evenodd" clip-rule="evenodd" fill="#FFFFFF" d="M511.226,327.085c1.036,0.581,2.093,0.872,3.384,0.872
				c4.561,0,7.426-2.95,7.426-7.6c0-4.213-2.447-7.036-5.937-7.036c-1.035,0-2.241,0.291-3.632,0.83l2.1-3.777
				c0.787-0.124,1.532-0.209,2.241-0.209c5.646,0,9.342,3.901,9.342,9.823c0,6.593-4.61,10.998-12.249,10.998
				c-1.688,0-3.873-0.241-6.555-0.73v-28.922h3.88V327.085z"/>
			<path fill-rule="evenodd" clip-rule="evenodd" fill="#FFFFFF" d="M545.257,314.687v-4.358c-2.404-0.33-4.106-0.496-5.106-0.496
				c-6.434,0-11.306,4.73-11.306,10.77c0,5.895,4.83,10.335,11.767,10.335c1.908,0,3.525-0.454,5.064-1.404l1.333-3.341
				c-2,0.922-3.83,1.468-5.695,1.468c-4.482,0-7.93-3.276-7.93-7.866c0-4.148,2.575-6.976,6.561-6.976
				C541.483,312.817,543.264,313.441,545.257,314.687"/>
			<path fill-rule="evenodd" clip-rule="evenodd" fill="#FFFFFF" d="M555.102,338.767h-3.879v-28.41h3.787l0.007,2.88
				c2.036-2.199,4.447-3.323,7.228-3.323c5.419,0,9.689,4.319,9.689,10.005c0,3.72-1.532,6.869-4.199,8.862
				c-1.823,1.376-3.787,1.993-6.036,1.993c-0.993,0-2.028-0.121-3.106-0.369l-2.454-3.574c1.667,0.751,3.071,1.12,4.354,1.12
				c4.405,0,7.079-2.695,7.079-7.388c0-4.546-2.837-7.617-6.575-7.617c-1.617,0-3.113,0.582-4.277,1.66
				c-1.539,1.411-1.617,3.404-1.617,6.163v1.245V338.767z"/>
			<path fill-rule="evenodd" clip-rule="evenodd" fill="#FFFFFF" d="M309.804,239.826c0-2.869-2.185-5.389-5.036-5.389
				c-2.766,0-5.433,2.083-5.433,5.126c0,3.213,2.327,5.741,5.433,5.741C307.62,245.305,309.804,242.695,309.804,239.826"/>
			<path fill-rule="evenodd" clip-rule="evenodd" fill="#FFFFFF" d="M301.215,250.497c0,0,0.028,5.564,0.028,9.565v20.757
				c0,3.979-0.057,9.629-0.057,9.629h7.682c0,0,0.014-5.649,0.014-9.629v-30.314c0,0-3.781-0.007-5.703-0.007H301.215z"/>
			<path fill-rule="evenodd" clip-rule="evenodd" fill="#FFFFFF" d="M321.209,233.261c0,0,0.064,5.657,0.064,9.661v37.904
				c0,3.982,0.014,9.639,0.014,9.639h8.015c0,0-0.114-5.657-0.114-9.639v-47.582c0,0-3.823,0.018-5.83,0.018H321.209z"/>
			<path fill-rule="evenodd" clip-rule="evenodd" fill="#FFFFFF" d="M340.942,233.183c0,0,0.064,5.657,0.064,9.661v37.904
				c0,3.983,0.014,9.639,0.014,9.639h8.008c0,0-0.106-5.656-0.106-9.639v-47.582c0,0-3.83,0.018-5.837,0.018H340.942z"/>
			<path fill-rule="evenodd" clip-rule="evenodd" fill="#FFFFFF" d="M254.991,275.651l-16.235-38.092
				c-5.058-11.702-12.157-16.491-17.81-17.842c-2.525-0.876-9.816-0.284-9.816-0.284s5.49,0.284,8.511,2.575
				c4.241,2.768,6.873,9.239,5.695,17.98l-5.149,38.085c-0.695,4.67-2.071,12.345-2.071,12.345h7.405c0,0,0.461-5.876,1.156-11.132
				l4.901-37.145l16.413,38.957c2.078,4.823,3.284,7.157,7.61,10.444l19.349-49.487l4.93,41.638
				c0.284,2.922,0.497,6.724,0.497,6.724h9.575c0,0-0.844-5.014-1.355-9.057l-5.709-42.419c-0.177-1.989-0.404-5.364-0.404-5.364
				h-11.852v0.087c0,1.821-0.61,3.546-1.305,5.362L254.991,275.651z"/>
			<path fill-rule="evenodd" clip-rule="evenodd" fill="#FFFFFF" d="M399.11,268.7c0.348-11.207-7.752-19.714-19.569-19.714
				c-12.944,0-21.732,8.771-21.732,20.846c0,12.097,10.185,21.388,24.952,21.388c4.1,0,8.249-0.61,11.994-2.174l4.355-8.16h-0.27
				c-4,3.132-9.043,4.589-14.242,4.589c-9.838,0-17.214-6.157-17.385-16.775H399.11z M367.554,263.675
				c1.05-5.483,5.376-8.965,11.207-8.965c6.263,0,10.249,2.873,11.207,8.965H367.554z"/>
			<path fill-rule="evenodd" clip-rule="evenodd" fill="#FFFFFF" d="M507.346,239.872c0-2.869-2.177-5.389-5.028-5.389
				c-2.767,0-5.454,2.083-5.454,5.126c0,3.213,2.34,5.738,5.454,5.738C505.169,245.348,507.346,242.741,507.346,239.872"/>
			<path fill-rule="evenodd" clip-rule="evenodd" fill="#FFFFFF" d="M498.764,250.546c0,0,0.028,5.561,0.028,9.561v20.754
				c0,3.982-0.057,9.635-0.057,9.635h7.675c0,0,0.014-5.653,0.014-9.635v-30.315h-5.702H498.764z"/>
			<path fill-rule="evenodd" clip-rule="evenodd" fill="#FFFFFF" d="M406.387,250.472c0,0,0.085,5.657,0.085,9.661v20.693
				c0,3.982,0.007,9.639,0.007,9.639h7.979c0,0-0.071-5.571-0.071-9.551v-15.388c0-5.132,1.305-10.44,9.235-10.44
				c7.894,0,10.504,4.788,10.504,14.079v11.749c0,3.894-0.007,9.551-0.007,9.551h7.965c0,0-0.057-5.571-0.057-9.551v-12.622
				c0-4.071,0.256-9.465-2.156-12.944c-2.787-4.092-8.355-6.011-13.228-6.011c-5.639,0-9.207,2.529-12.257,6.707v-5.607
				c0,0-4.17,0.035-6.093,0.035H406.387z"/>
			<path fill-rule="evenodd" clip-rule="evenodd" fill="#FFFFFF" d="M544.562,250.352c0,0,0.014,5.656,0.014,9.749v13.38
				c0,6.703-4.17,11.38-9.923,11.38c-7.547,0-9.81-4.94-9.81-12.944v-21.559c0,0-3.659-0.007-5.574-0.007h-2.426
				c0,0,0.078,5.656,0.078,9.66v13.384c0,12.246,4.879,18.08,15.121,18.08c6.093,0,9.405-2,12.533-6.788v5.657h7.908
				c0,0-0.007-5.483-0.007-9.465v-30.514c0,0-4.504-0.014-6.767-0.014H544.562z"/>
			<path fill-rule="evenodd" clip-rule="evenodd" fill="#FFFFFF" d="M451.533,250.433c0,0,0.078,5.657,0.078,9.661v20.69
				c0,3.982,0.007,9.643,0.007,9.643h7.958c0,0-0.071-5.571-0.071-9.554v-15.38c0-5.139,1.312-10.448,9.228-10.448
				c7.923,0,10.512,4.788,10.512,14.08v11.749c0,3.894-0.007,9.554-0.007,9.554h7.986c0,0-0.057-5.571-0.057-9.554V268.25
				c0-4.067,0.256-9.462-2.178-12.944c-2.787-4.093-8.334-6.008-13.206-6.008c-5.66,0-9.229,2.525-12.278,6.703v-5.607
				c0,0-4.149,0.039-6.071,0.039H451.533z"/>
			<path fill-rule="evenodd" clip-rule="evenodd" fill="#FFFFFF" d="M563.635,250.458c0,0,0.092,5.571,0.092,9.571v20.782
				c0,3.982-0.035,9.639-0.035,9.639h7.93v-9.639v-13.317c0-8.337,3.221-12.423,9.838-12.423c5.376,0,9.901,4.61,9.901,13.728
				v12.012c0,3.982,0.007,9.639,0.007,9.639h7.909c0,0,0.007-5.657,0.007-9.639V268.19c0-8.161,2.149-13.118,9.986-13.118
				c6.958,0,9.725,5.656,9.725,14.512v11.228c0,3.982-0.071,9.639-0.071,9.639h8.015c0,0-0.028-5.909-0.028-9.639V267.41
				c0-11.033-3.213-18.087-15.554-18.087c-6.44,0-10.512,2.873-13.902,7.575c-3.22-5.135-7.397-7.575-13.583-7.575
				c-5.802,0-9.199,2.181-12.249,6.88v-5.728c0,0-3.745-0.018-5.653-0.018H563.635z"/>
			<rect x="164.584" y="298.98" fill="#FFFFFF" width="514.414" height="2.5"/>
		</g>
	</g>
</g>
</svg>
