<?xml version="1.0" encoding="utf-8"?>
<!-- Generator: Adobe Illustrator 15.0.0, SVG Export Plug-In . SVG Version: 6.00 Build 0)  -->
<!DOCTYPE svg PUBLIC "-//W3C//DTD SVG 1.1//EN" "http://www.w3.org/Graphics/SVG/1.1/DTD/svg11.dtd">
<svg version="1.1" id="Layer_1" xmlns="http://www.w3.org/2000/svg" xmlns:xlink="http://www.w3.org/1999/xlink" x="0px" y="0px"
	 width="592px" height="840px" viewBox="0 0 592 840" enable-background="new 0 0 592 840" xml:space="preserve">
<path fill="#FFFFFF" d="M324.178,101.044c0.971,0.542,1.982,0.814,3.186,0.814c4.271,0,6.955-2.758,6.955-7.109
	c0-3.963-2.293-6.604-5.557-6.604c-0.969,0-2.098,0.271-3.418,0.778l1.98-3.536c0.738-0.117,1.438-0.193,2.096-0.193
	c5.285,0,8.744,3.649,8.744,9.206c0,6.175-4.314,10.293-11.461,10.293c-1.598,0-3.646-0.225-6.15-0.68V73.911h3.625V101.044
	L324.178,101.044z"/>
<path fill="#FFFFFF" d="M356.07,89.426v-4.081c-2.254-0.31-3.848-0.464-4.779-0.464c-6.021,0-10.605,4.428-10.605,10.099
	c0,5.516,4.545,9.675,11.033,9.675c1.787,0,3.301-0.43,4.74-1.32l1.248-3.125c-1.871,0.863-3.584,1.375-5.328,1.375
	c-4.195,0-7.422-3.067-7.422-7.38c0-3.885,2.412-6.527,6.141-6.527C352.533,87.676,354.205,88.26,356.07,89.426L356.07,89.426z"/>
<path fill="#FFFFFF" d="M365.305,112h-3.637V85.373h3.551l0.006,2.692c1.9-2.059,4.156-3.108,6.76-3.108
	c5.088,0,9.09,4.042,9.09,9.363c0,3.498-1.438,6.448-3.924,8.314c-1.711,1.281-3.574,1.862-5.672,1.862
	c-0.932,0-1.904-0.115-2.914-0.347l-2.293-3.342c1.555,0.698,2.877,1.048,4.08,1.048c4.119,0,6.645-2.524,6.645-6.915
	c0-4.273-2.682-7.148-6.178-7.148c-1.516,0-2.914,0.544-4.002,1.555c-1.438,1.321-1.514,3.186-1.514,5.787v1.167L365.305,112
	L365.305,112z"/>
<path fill="#FFFFFF" d="M135.465,19.286c0-2.684-2.041-5.044-4.711-5.044c-2.591,0-5.105,1.953-5.105,4.8
	c0,3.01,2.2,5.37,5.105,5.37C133.424,24.412,135.465,21.971,135.465,19.286L135.465,19.286z"/>
<path fill="#FFFFFF" d="M127.427,29.294c0,0,0.028,5.207,0.028,8.951V57.69c0,3.743-0.055,9.032-0.055,9.032h7.19
	c0,0,0.011-5.289,0.011-9.032V29.297c0,0-3.533-0.003-5.34-0.003H127.427L127.427,29.294z"/>
<path fill="#FFFFFF" d="M146.164,13.143c0,0,0.051,5.294,0.051,9.042v35.512c0,3.747,0.021,9.04,0.021,9.04h7.494
	c0,0-0.101-5.293-0.101-9.04V13.128c0,0-3.583,0.015-5.458,0.015H146.164L146.164,13.143z"/>
<path fill="#FFFFFF" d="M164.646,13.069c0,0,0.051,5.295,0.051,9.042v35.512c0,3.748,0.021,9.041,0.021,9.041h7.496
	c0,0-0.103-5.292-0.103-9.041V13.054c0,0-3.584,0.015-5.458,0.015H164.646L164.646,13.069z"/>
<path fill="#FFFFFF" d="M84.113,52.854l-15.215-35.69C64.162,6.198,57.499,1.712,52.207,0.446C49.847-0.37,43,0.183,43,0.183
	s5.159,0.264,7.991,2.41c3.964,2.589,6.426,8.646,5.327,16.848L51.499,55.12c-0.648,4.37-1.934,11.574-1.934,11.574h6.922
	c0,0,0.433-5.504,1.081-10.441l4.613-34.799l15.376,36.5c1.942,4.531,3.076,6.717,7.122,9.792l18.128-46.372l4.612,39.007
	c0.267,2.755,0.468,6.313,0.468,6.313h8.978c0,0-0.786-4.695-1.273-8.498l-5.34-39.737c-0.164-1.861-0.379-5.017-0.379-5.017H98.761
	v0.081c0,1.699-0.566,3.317-1.214,5.018L84.113,52.854L84.113,52.854z"/>
<path fill-rule="evenodd" clip-rule="evenodd" fill="#FFFFFF" d="M219.137,46.35c0.327-10.507-7.25-18.489-18.325-18.489
	c-12.137,0-20.362,8.226-20.362,19.547s9.529,20.037,23.375,20.037c3.828,0,7.737-0.572,11.24-2.036l4.072-7.657h-0.244
	c-3.747,2.934-8.471,4.317-13.358,4.317c-9.203,0-16.125-5.784-16.289-15.719H219.137L219.137,46.35z M189.571,41.625
	c0.979-5.131,5.051-8.389,10.508-8.389c5.863,0,9.61,2.688,10.506,8.389H189.571L189.571,41.625z"/>
<path fill="#FFFFFF" d="M320.555,19.329c0-2.686-2.045-5.045-4.713-5.045c-2.59,0-5.104,1.953-5.104,4.801
	c0,3.01,2.197,5.37,5.104,5.37C318.51,24.455,320.555,22.014,320.555,19.329L320.555,19.329z"/>
<path fill="#FFFFFF" d="M312.514,29.337c0,0,0.031,5.207,0.031,8.95v19.447c0,3.742-0.057,9.031-0.057,9.031h7.189
	c0,0,0.012-5.289,0.012-9.031V29.34c0,0-3.533-0.003-5.338-0.003H312.514L312.514,29.337z"/>
<path fill="#FFFFFF" d="M225.976,29.27c0,0,0.073,5.295,0.073,9.042v19.384c0,3.747,0.008,9.04,0.008,9.04h7.465
	c0,0-0.061-5.211-0.061-8.959V43.361c0-4.805,1.221-9.774,8.633-9.774c7.412,0,9.856,4.479,9.856,13.196v10.995
	c0,3.667-0.005,8.959-0.005,8.959h7.472c0,0-0.056-5.211-0.056-8.959V45.968c0-3.829,0.246-8.878-2.036-12.137
	c-2.606-3.828-7.819-5.62-12.38-5.62c-5.293,0-8.634,2.362-11.484,6.271v-5.247c0,0-3.91,0.034-5.702,0.034H225.976L225.976,29.27z"
	/>
<path fill="#FFFFFF" d="M355.422,29.159c0,0,0.012,5.292,0.012,9.122v12.543c0,6.271-3.91,10.668-9.287,10.668
	c-7.086,0-9.203-4.642-9.203-12.135V29.162c0,0-3.422-0.003-5.213-0.003h-2.273c0,0,0.076,5.292,0.076,9.04v12.543
	c0,11.484,4.561,16.942,14.17,16.942c5.701,0,8.797-1.875,11.73-6.354v5.294h7.414c0,0-0.004-5.132-0.004-8.877V29.171
	c0,0-4.236-0.012-6.352-0.012H355.422L355.422,29.159z"/>
<path fill="#FFFFFF" d="M268.256,29.232c0,0,0.073,5.292,0.073,9.041v19.385c0,3.746,0.007,9.042,0.007,9.042h7.467
	c0,0-0.063-5.214-0.063-8.96V43.322c0-4.806,1.225-9.774,8.636-9.774c7.412,0,9.856,4.479,9.856,13.195v10.996
	c0,3.664-0.008,8.96-0.008,8.96h7.475c0,0-0.057-5.214-0.057-8.96v-11.81c0-3.829,0.244-8.878-2.035-12.136
	c-2.608-3.829-7.819-5.621-12.381-5.621c-5.294,0-8.634,2.361-11.486,6.271v-5.248c0,0-3.907,0.036-5.699,0.036H268.256
	L268.256,29.232z"/>
<path fill="#FFFFFF" d="M373.291,29.255c0,0,0.082,5.213,0.082,8.96v19.466c0,3.747-0.035,9.041-0.035,9.041h7.443
	c0,0,0.002-5.293,0.002-9.041V45.219c0-7.818,3.014-11.646,9.203-11.646c5.049,0,9.287,4.316,9.287,12.869v11.24
	c0,3.747,0.006,9.041,0.006,9.041h7.402c0,0,0.002-5.293,0.002-9.041v-11.81c0-7.656,2.035-12.299,9.369-12.299
	c6.514,0,9.119,5.294,9.119,13.602v10.507c0,3.747-0.076,9.041-0.076,9.041h7.512c0,0-0.021-5.54-0.021-9.041V45.139
	c0-10.345-3.014-16.941-14.58-16.941c-6.025,0-9.857,2.688-13.031,7.086c-3.016-4.806-6.924-7.086-12.707-7.086
	c-5.457,0-8.633,2.037-11.484,6.435v-5.361c0,0-3.5-0.016-5.293-0.016H373.291L373.291,29.255z"/>
<g>
	<path fill="#FFFFFF" d="M478.471,75"/>
	<rect y="73" fill="#FFFFFF" width="480" height="1.976"/>
</g>
</svg>
